<svg width="32" height="32" viewBox="0 0 32 32" fill="none" xmlns="http://www.w3.org/2000/svg">
<circle cx="16" cy="16" r="16" fill="white"/>
<path d="M9.62677 22.5621C9.50118 23.1272 8.99988 23.5294 8.4209 23.5294H6.24587C5.45559 23.5294 4.86856 22.7976 5.03999 22.0261L8.25568 7.55552C8.38128 6.99032 8.88258 6.5882 9.46156 6.5882H15.9503C16.5293 6.5882 17.0306 6.99032 17.1562 7.55552L20.3719 22.0261C20.5433 22.7976 19.9563 23.5294 19.166 23.5294H16.991C16.412 23.5294 15.9107 23.1272 15.7851 22.5621L15.0618 19.3072C14.999 19.0246 14.7483 18.8235 14.4588 18.8235H13.8175C13.0138 18.8235 12.4242 18.0682 12.6191 17.2886L13.0496 15.5665C13.1242 15.2681 13.3923 15.0588 13.6999 15.0588V15.0588C13.9143 15.0588 14.0736 14.8602 14.0271 14.6509L13.1513 10.7102C13.105 10.5014 12.9198 10.3529 12.7059 10.3529V10.3529C12.4921 10.3529 12.3069 10.5014 12.2605 10.7102L9.62677 22.5621Z" fill="#1B16FF"/>
<path d="M19.4645 6.5882C18.6609 6.5882 18.0712 7.34344 18.2661 8.12309L18.6895 9.81672C18.7683 10.1318 19.0514 10.3529 19.3763 10.3529V10.3529C19.5422 10.3529 19.6858 10.4681 19.7218 10.6301L22.3733 22.5621C22.4989 23.1272 23.0002 23.5294 23.5792 23.5294H25.7542C26.5445 23.5294 27.1315 22.7976 26.9601 22.0261L23.7444 7.55552C23.6188 6.99032 23.1175 6.5882 22.5385 6.5882H19.4645Z" fill="#1B16FF"/>
</svg>
